<svg xmlns="http://www.w3.org/2000/svg" viewBox="0 0 76.01 61.41"><defs><style>.cls-1{fill:#cf030f;}.cls-2{fill:#fff;}</style></defs><g id="Capa_2" data-name="Capa 2"><g id="GUIAS"><rect class="cls-1" width="76.01" height="61.41" rx="11.53"/><path class="cls-2" d="M39.64,10.43H36.36L35.51,18h5Z"/><path class="cls-2" d="M46.83,18l-2.55-7.55H41L41.85,18Z"/><path class="cls-2" d="M38,24.19a2.5,2.5,0,0,0,2.49-2.49V18h-5V21.7A2.5,2.5,0,0,0,38,24.19Z"/><path class="cls-2" d="M54.53,18h5l-6.07-7.56H50.38Z"/><path class="cls-2" d="M34.19,18,35,10.43H31.73L29.21,18Z"/><path class="cls-2" d="M41.85,21.7a2.49,2.49,0,0,0,5,0V18h-5Z"/><path class="cls-2" d="M48.19,18h5l-4.29-7.55H45.7Z"/><path class="cls-2" d="M48.19,21.7a2.49,2.49,0,0,0,5,0V18h-5Z"/><path class="cls-2" d="M25.62,10.43H22.56l-6,7.55h5Z"/><path class="cls-2" d="M54.53,18v3.72a2.49,2.49,0,1,0,5,0V18Z"/><path class="cls-2" d="M22.86,18h4.95l2.49-7.55H27.13Z"/><path class="cls-2" d="M29.21,21.7a2.49,2.49,0,0,0,5,0V18h-5Z"/><path class="cls-2" d="M19,24.19A2.5,2.5,0,0,0,21.5,21.7V18h-5V21.7A2.49,2.49,0,0,0,19,24.19Z"/><path class="cls-2" d="M27.81,21.72V18H22.86v3.74a2.48,2.48,0,0,0,4.95,0Z"/><path class="cls-2" d="M40.31,34.76l2.26-2.25a.7.7,0,1,0-1-1l-2.22,2.25a.71.71,0,0,0,0,1,.67.67,0,0,0,1,0Z"/><path class="cls-2" d="M40.49,38.64a.66.66,0,0,0,.95,0l5.11-5a.69.69,0,0,0,0-1,.71.71,0,0,0-1,0l-5.11,5a.75.75,0,0,0,0,1Z"/><path class="cls-2" d="M53.85,23.92a3.85,3.85,0,0,1-6.35,0,3.84,3.84,0,0,1-6.34,0A3.88,3.88,0,0,1,38,25.59a3.83,3.83,0,0,1-3.17-1.67,3.85,3.85,0,0,1-3.17,1.67A3.94,3.94,0,0,1,28.5,24a4,4,0,0,1-6.37,0A3.83,3.83,0,0,1,19,25.59a4,4,0,0,1-2.49-.88V51h3.14V29.13h14V51H59.45V24.67a4,4,0,0,1-2.49.89,3.8,3.8,0,0,1-3.11-1.64Zm3.06,19h-20V29.13h20V42.9Z"/></g></g></svg>